# xmcd
#
# Track frame offsets:
#	150
#	11157
#	37895
#	49972
#	70172
#	89700
#	113310
#	143915
#	168757
#	189927
#	205262
#
# Disc length: 2972 seconds
#
# Revision: 1
# Processed by: cddbd v1.5.1PL0 Copyright (c) Steve Scherf et al.
# Submitted via: CDex 1.50Beta5
#
DISCID=8e0b9a0b
DTITLE=さまざまなアーティスト - Brasil Night montreux 1983
DYEAR=1900
DGENRE=
TTITLE0=maria bethania
TTITLE1=terra
TTITLE2=eu sei que vou te amor
TTITLE3=eclipse oculto
TTITLE4=odara
TTITLE5=linha de passe
TTITLE6=nacao-aquarela do brasil-o mestre sara dos mares
TTITLE7=deixar voce
TTITLE8=andar com fe
TTITLE9=napoleao
TTITLE10=folia no matagal
EXTD=
EXTT0=
EXTT1=
EXTT2=
EXTT3=
EXTT4=
EXTT5=
EXTT6=
EXTT7=
EXTT8=
EXTT9=
EXTT10=
PLAYORDER=
